# Blender v2.79 (sub 0) OBJ File: 'Low Poly King.blend'
# www.blender.org
mtllib Low Poly King.mtl
o LP_King_Sphere.001
v 0.152493 9.028288 0.148812
v 0.249486 8.948933 0.243464
v 0.002603 9.028288 0.213055
v 0.004259 8.948933 0.348569
v -0.148812 9.028288 0.152493
v -0.243464 8.948933 0.249487
v -0.213055 9.028288 0.002603
v -0.348568 8.948933 0.004259
v -0.213055 9.302430 0.002603
v -0.152493 9.028288 -0.148812
v -0.249486 8.948933 -0.243464
v -0.002603 9.028288 -0.213054
v -0.004259 8.948933 -0.348568
v 0.148812 9.028288 -0.152493
v 0.243464 8.948933 -0.249486
v 0.213054 9.028288 -0.002603
v 0.348568 8.948933 -0.004259
v 1.095930 6.969274 -0.001909
v 0.765514 6.969274 -0.772827
v -0.013247 6.969274 -1.084311
v -0.784167 6.969274 -0.753894
v 2.249831 0.000000 -0.027488
v 1.116463 2.413453 -0.013640
v 1.610308 0.000000 1.571435
v 0.799104 2.413453 0.779814
v 0.027487 0.000000 2.249832
v 0.013640 2.413453 1.116463
v -1.571436 0.000000 1.610309
v -0.779814 2.413453 0.799104
v -2.249833 0.000000 0.027487
v -1.116463 2.413453 0.013640
v -1.610308 0.000000 -1.571436
v -0.799104 2.413453 -0.779814
v -0.027486 0.000000 -2.249832
v -0.013640 2.413453 -1.116463
v 1.571436 0.000000 -1.610306
v 0.779814 2.413453 -0.799103
v 1.459176 2.111497 -0.017828
v 1.044399 2.111497 1.019188
v 0.017827 2.111497 1.459177
v -1.019188 2.111497 1.044400
v -1.459177 2.111497 0.017827
v -1.044399 2.111497 -1.019188
v -0.017827 2.111497 -1.459176
v 1.019188 2.111497 -1.044398
v 2.039333 0.541580 -0.024916
v 1.459645 0.541580 1.424409
v 0.024915 0.541580 2.039334
v -1.424409 0.541580 1.459645
v -2.039335 0.541580 0.024915
v -1.459645 0.541580 -1.424410
v -0.024915 0.541580 -2.039334
v 1.424410 0.541580 -1.459643
v 1.714876 0.696002 -0.020952
v 1.227416 0.696002 1.197786
v 0.020951 0.696002 1.714877
v -1.197786 0.696002 1.227417
v -1.714878 0.696002 0.020951
v -1.227416 0.696002 -1.197787
v -0.020951 0.696002 -1.714877
v 1.197787 0.696002 -1.227415
v 2.097947 1.326516 -0.025632
v 1.501597 1.326516 1.465349
v 0.025632 1.326516 2.097948
v -1.465349 1.326516 1.501598
v -2.097949 1.326516 0.025631
v -1.501598 1.326516 -1.465349
v -0.025631 1.326516 -2.097948
v 1.465350 1.326516 -1.501596
v 1.444163 2.236249 -0.017644
v 1.033654 2.236249 1.008701
v 0.017644 2.236249 1.444163
v -1.008702 2.236249 1.033654
v -1.444164 2.236249 0.017644
v -1.033654 2.236249 -1.008702
v -0.017643 2.236249 -1.444163
v 1.008702 2.236249 -1.033653
v -0.008732 6.323641 -0.714765
v 0.499241 6.323641 -0.511590
v 0.714765 6.323641 -0.008733
v 0.511590 6.323641 0.499241
v 0.008733 6.323641 0.714766
v -0.499241 6.323641 0.511591
v -0.714766 6.323641 0.008733
v -0.511590 6.323641 -0.499241
v -0.019257 6.554923 -1.576260
v 1.100967 6.554923 -1.128200
v 1.576260 6.554923 -0.019258
v 1.128201 6.554923 1.100966
v 0.019258 6.554923 1.576260
v -1.100967 6.554923 1.128202
v -1.576261 6.554923 0.019258
v -1.128202 6.554923 -1.100967
v -0.013396 6.801265 -1.096484
v 0.765859 6.801265 -0.784803
v 1.096484 6.801265 -0.013396
v 0.784804 6.801265 0.765859
v 0.013396 6.801265 1.096485
v -0.765859 6.801265 0.784805
v -1.096485 6.801265 0.013396
v -0.784804 6.801265 -0.765859
v 0.011282 7.048345 0.923463
v -0.633555 7.048345 0.665547
v -0.907149 7.048345 0.027204
v -0.649232 7.048345 -0.617633
v -0.010889 7.048345 -0.891227
v 0.633948 7.048345 -0.633310
v 0.907541 7.048345 0.005033
v 0.649625 7.048345 0.649870
v -1.095650 6.969274 0.024867
v -0.765234 6.969274 0.795787
v 0.013528 6.969274 1.107269
v 0.784447 6.969274 0.776853
v 0.011110 7.466897 0.909411
v -0.627217 7.466897 0.654098
v -0.898049 7.466897 0.022199
v -0.642736 7.466897 -0.616128
v -0.010837 7.466897 -0.886960
v 0.627490 7.466897 -0.631647
v 0.898322 7.466897 0.000251
v 0.643009 7.466897 0.638579
v 0.014489 8.583366 1.185935
v 0.848827 8.583366 0.828337
v -0.828338 8.583366 0.848828
v -1.185936 8.583366 0.014489
v -0.848829 8.583366 -0.828337
v -0.014490 8.583366 -1.185935
v 0.828336 8.583366 -0.848828
v 1.185934 8.583366 -0.014489
v 0.014489 8.583366 1.185935
v 0.848827 8.583366 0.828337
v -0.828338 8.583366 0.848828
v -1.185936 8.583366 0.014489
v -0.848829 8.583366 -0.828337
v -0.014490 8.583366 -1.185935
v 0.828336 8.583366 -0.848828
v 1.185934 8.583366 -0.014489
v -0.002678 8.875105 -0.219201
v 0.153105 8.875105 -0.156893
v -0.156893 8.875105 -0.153105
v 0.219201 8.875105 -0.002678
v -0.219202 8.875105 0.002678
v 0.156893 8.875105 0.153105
v -0.153105 8.875105 0.156893
v 0.002678 8.875105 0.219202
v 0.002603 9.850716 0.213055
v 0.152493 9.850716 0.148812
v -0.148812 9.850716 0.152493
v -0.213055 9.850716 0.002603
v -0.000000 9.975286 -0.000000
v -0.152493 9.850716 -0.148812
v -0.002603 9.850716 -0.213055
v 0.148812 9.850716 -0.152493
v 0.213054 9.850716 -0.002603
v -0.213055 9.576573 0.002603
v 0.213054 9.302430 -0.002603
v 0.213054 9.576573 -0.002603
v -0.148812 9.576572 0.152493
v -0.148812 9.302430 0.152493
v 0.148812 9.576572 -0.152493
v 0.148812 9.302430 -0.152493
v 0.002603 9.576572 0.213055
v 0.002603 9.302430 0.213055
v 0.152493 9.302430 0.148812
v 0.152493 9.576573 0.148812
v -0.002603 9.576572 -0.213054
v -0.002603 9.302430 -0.213054
v -0.152493 9.302430 -0.148812
v -0.152493 9.576573 -0.148812
v -0.213055 9.302430 0.002603
v -0.213055 9.576573 0.002603
v 0.213054 9.302430 -0.002603
v 0.213054 9.576573 -0.002603
v -0.148812 9.576572 0.152493
v -0.148812 9.302430 0.152493
v 0.148812 9.576572 -0.152493
v 0.148812 9.302430 -0.152493
v -0.419512 9.153886 0.091091
v -0.419512 9.725119 0.091091
v 0.419512 9.153886 -0.091091
v 0.419512 9.725119 -0.091091
v -0.355269 9.725118 0.240981
v -0.355269 9.153884 0.240981
v 0.355269 9.725118 -0.240981
v 0.355269 9.153884 -0.240981
vn 0.4970 0.8446 0.1988
vn -0.9191 0.0000 0.3939
vn 0.9191 -0.0000 -0.3939
vn 0.2109 0.8446 0.4920
vn -0.9285 -0.0000 -0.3714
vn -0.1988 0.8446 0.4970
vn -0.4920 0.8446 0.2109
vn 0.9285 0.0000 0.3714
vn -0.4970 0.8446 -0.1988
vn -0.3714 0.0000 0.9285
vn -0.2109 0.8446 -0.4920
vn 0.3714 -0.0000 -0.9285
vn 0.1988 0.8446 -0.4970
vn 0.3939 0.0000 0.9191
vn 0.4920 0.8446 -0.2109
vn -0.3939 -0.0000 -0.9191
vn -0.1568 0.9066 0.3919
vn -0.3833 0.9089 0.1643
vn 0.3933 -0.0592 0.9175
vn -0.3807 0.9121 -0.1523
vn -0.3707 -0.0592 0.9269
vn -0.1596 0.9142 -0.3724
vn -0.9189 -0.0223 0.3938
vn -0.9281 0.0300 -0.3712
vn 0.1505 0.9142 -0.3762
vn -0.3931 0.0668 -0.9171
vn 0.3769 0.9121 -0.1615
vn 0.3705 0.0668 -0.9264
vn 0.3872 0.9089 0.1549
vn 0.9187 0.0300 -0.3938
vn 0.4252 0.8890 0.1701
vn 0.2968 0.6009 -0.7421
vn 0.7347 0.6009 -0.3149
vn 0.3149 0.6009 0.7347
vn 0.7421 0.6009 0.2968
vn -0.8650 0.3380 0.3708
vn 0.4209 0.8890 -0.1804
vn -0.3238 -0.4895 0.8096
vn -0.8015 -0.4895 0.3435
vn -0.3435 -0.4895 -0.8015
vn -0.8096 -0.4895 -0.3238
vn -0.8738 0.3380 -0.3495
vn -0.3495 0.3380 0.8738
vn 0.3238 -0.4895 -0.8096
vn 0.8015 -0.4895 -0.3435
vn 0.8096 -0.4895 0.3238
vn 0.3435 -0.4895 0.8015
vn -0.3708 0.3380 -0.8650
vn -0.1804 0.8890 -0.4209
vn -0.4643 0.8631 0.1990
vn -0.4690 0.8631 -0.1876
vn 0.4690 0.8631 0.1876
vn 0.4643 0.8631 -0.1990
vn 0.1701 0.8890 -0.4252
vn -0.4252 0.8890 -0.1701
vn -0.1876 0.8631 0.4690
vn -0.1990 0.8631 -0.4643
vn 0.1990 0.8631 0.4643
vn 0.1876 0.8631 -0.4690
vn 0.3495 0.3380 -0.8738
vn -0.4209 0.8890 0.1804
vn -0.3691 0.1105 0.9228
vn -0.9135 0.1105 0.3915
vn -0.9228 0.1105 -0.3691
vn -0.3915 0.1105 -0.9135
vn 0.8650 0.3380 -0.3708
vn -0.1701 0.8890 0.4252
vn 0.3691 0.1105 -0.9228
vn 0.9135 0.1105 -0.3915
vn 0.9228 0.1105 0.3691
vn 0.3915 0.1105 0.9135
vn 0.8738 0.3380 0.3495
vn -0.7421 0.6009 -0.2968
vn -0.3149 0.6009 -0.7347
vn -0.7347 0.6009 0.3149
vn -0.2968 0.6009 0.7421
vn 0.1804 0.8890 0.4209
vn -0.9150 0.0945 0.3922
vn 0.0000 -1.0000 0.0000
vn 0.3708 0.3380 0.8650
vn -0.1099 -0.9603 -0.2565
vn -0.3922 0.0945 -0.9150
vn 0.9243 0.0945 0.3697
vn 0.3697 0.0945 -0.9243
vn 0.9150 0.0945 -0.3922
vn -0.9243 0.0945 -0.3697
vn -0.3697 0.0945 0.9243
vn 0.3922 0.0945 0.9150
vn 0.4465 0.8741 -0.1914
vn -0.1036 -0.9603 0.2591
vn 0.1099 -0.9603 0.2565
vn 0.1036 -0.9603 -0.2591
vn -0.2591 -0.9603 -0.1036
vn 0.2591 -0.9603 0.1036
vn -0.2565 -0.9603 0.1099
vn 0.2565 -0.9603 -0.1099
vn 0.9283 -0.0223 0.3713
vn -0.1914 0.8741 -0.4465
vn -0.1804 0.8741 0.4510
vn 0.1914 0.8741 0.4465
vn 0.1804 0.8741 -0.4510
vn -0.4510 0.8741 -0.1804
vn 0.4510 0.8741 0.1804
vn -0.4465 0.8741 0.1914
vn 0.9282 0.0247 0.3713
vn 0.9190 0.0157 -0.3939
vn 0.3714 0.0094 -0.9284
vn -0.3939 0.0094 -0.9191
vn -0.9284 0.0157 -0.3713
vn -0.9189 0.0247 0.3938
vn -0.3712 0.0310 0.9280
vn 0.3938 0.0310 0.9187
vn 0.1663 0.9066 0.3880
vn 0.3840 -0.2231 0.8960
vn 0.9040 -0.2281 0.3616
vn -0.8949 -0.2281 0.3836
vn -0.9024 -0.2352 -0.3610
vn -0.3824 -0.2402 -0.8922
vn 0.3605 -0.2402 -0.9013
vn 0.8934 -0.2352 -0.3829
vn -0.3620 -0.2231 0.9051
vn 0.0000 0.0000 1.0000
vn 0.1153 0.9506 -0.2883
vn -0.1153 0.9506 0.2883
vn -0.1223 0.9506 -0.2854
vn 0.2883 0.9506 0.1153
vn 0.4830 -0.8508 -0.2070
vn -0.1952 -0.8508 0.4879
vn -0.2854 0.9506 0.1223
vn -0.2070 -0.8508 -0.4830
vn -0.2883 0.9506 -0.1153
vn -0.4879 -0.8508 -0.1952
vn 0.2854 0.9506 -0.1223
vn 0.1952 -0.8508 -0.4879
vn -0.4830 -0.8508 0.2070
vn 0.4879 -0.8508 0.1952
vn 0.2070 -0.8508 0.4830
vn 0.1223 0.9506 0.2854
vn 0.4965 0.8450 0.1986
vn 0.2107 0.8450 0.4915
vn -0.1986 0.8450 0.4965
vn -0.4915 0.8450 0.2106
vn -0.4965 0.8450 -0.1986
vn -0.2107 0.8450 -0.4915
vn 0.1986 0.8450 -0.4965
vn 0.4915 0.8450 -0.2106
vn 0.5070 -0.8341 -0.2173
vn -0.5070 -0.8341 0.2173
vn 0.5070 0.8341 -0.2173
vn -0.5070 0.8341 0.2173
usemtl None
s off
f 17//1 16//1 1//1 2//1
f 155//2 158//2 148//2 149//2
f 157//3 160//3 153//3 154//3
f 2//4 1//4 3//4 4//4
f 169//5 155//5 149//5 151//5
f 4//6 3//6 5//6 6//6
f 6//7 5//7 7//7 8//7
f 165//8 157//8 154//8 147//8
f 8//9 7//9 10//9 11//9
f 158//10 162//10 146//10 148//10
f 11//11 10//11 12//11 13//11
f 160//12 166//12 152//12 153//12
f 13//13 12//13 14//13 15//13
f 162//14 165//14 147//14 146//14
f 15//15 14//15 16//15 17//15
f 166//16 169//16 151//16 152//16
f 103//17 111//17 112//17 102//17
f 104//18 110//18 111//18 103//18
f 112//19 98//19 97//19 113//19
f 105//20 21//20 110//20 104//20
f 111//21 99//21 98//21 112//21
f 106//22 20//22 21//22 105//22
f 110//23 100//23 99//23 111//23
f 21//24 101//24 100//24 110//24
f 107//25 19//25 20//25 106//25
f 20//26 94//26 101//26 21//26
f 108//27 18//27 19//27 107//27
f 19//28 95//28 94//28 20//28
f 109//29 113//29 18//29 108//29
f 18//30 96//30 95//30 19//30
f 46//31 54//31 55//31 47//31
f 68//32 44//32 45//32 69//32
f 69//33 45//33 38//33 62//33
f 63//34 39//34 40//34 64//34
f 62//35 38//35 39//35 63//35
f 28//36 49//36 50//36 30//36
f 53//37 61//37 54//37 46//37
f 56//38 64//38 65//38 57//38
f 57//39 65//39 66//39 58//39
f 59//40 67//40 68//40 60//40
f 58//41 66//41 67//41 59//41
f 30//42 50//42 51//42 32//42
f 26//43 48//43 49//43 28//43
f 60//44 68//44 69//44 61//44
f 61//45 69//45 62//45 54//45
f 54//46 62//46 63//46 55//46
f 55//47 63//47 64//47 56//47
f 32//48 51//48 52//48 34//48
f 51//49 59//49 60//49 52//49
f 73//50 29//50 31//50 74//50
f 74//51 31//51 33//51 75//51
f 70//52 23//52 25//52 71//52
f 77//53 37//53 23//53 70//53
f 52//54 60//54 61//54 53//54
f 50//55 58//55 59//55 51//55
f 72//56 27//56 29//56 73//56
f 75//57 33//57 35//57 76//57
f 71//58 25//58 27//58 72//58
f 76//59 35//59 37//59 77//59
f 34//60 52//60 53//60 36//60
f 49//61 57//61 58//61 50//61
f 40//62 72//62 73//62 41//62
f 41//63 73//63 74//63 42//63
f 42//64 74//64 75//64 43//64
f 43//65 75//65 76//65 44//65
f 36//66 53//66 46//66 22//66
f 48//67 56//67 57//67 49//67
f 44//68 76//68 77//68 45//68
f 45//69 77//69 70//69 38//69
f 38//70 70//70 71//70 39//70
f 39//71 71//71 72//71 40//71
f 22//72 46//72 47//72 24//72
f 66//73 42//73 43//73 67//73
f 67//74 43//74 44//74 68//74
f 65//75 41//75 42//75 66//75
f 64//76 40//76 41//76 65//76
f 47//77 55//77 56//77 48//77
f 31//78 29//78 83//78 84//78
f 34//79 36//79 22//79 24//79 26//79 28//79 30//79 32//79
f 24//80 47//80 48//80 26//80
f 78//81 85//81 93//81 86//81
f 35//82 33//82 85//82 78//82
f 25//83 23//83 80//83 81//83
f 37//84 35//84 78//84 79//84
f 23//85 37//85 79//85 80//85
f 33//86 31//86 84//86 85//86
f 29//87 27//87 82//87 83//87
f 27//88 25//88 81//88 82//88
f 88//89 87//89 95//89 96//89
f 83//90 82//90 90//90 91//90
f 82//91 81//91 89//91 90//91
f 79//92 78//92 86//92 87//92
f 85//93 84//93 92//93 93//93
f 81//94 80//94 88//94 89//94
f 84//95 83//95 91//95 92//95
f 80//96 79//96 87//96 88//96
f 113//97 97//97 96//97 18//97
f 86//98 93//98 101//98 94//98
f 91//99 90//99 98//99 99//99
f 90//100 89//100 97//100 98//100
f 87//101 86//101 94//101 95//101
f 93//102 92//102 100//102 101//102
f 89//103 88//103 96//103 97//103
f 92//104 91//104 99//104 100//104
f 121//105 109//105 108//105 120//105
f 120//106 108//106 107//106 119//106
f 119//107 107//107 106//107 118//107
f 118//108 106//108 105//108 117//108
f 117//109 105//109 104//109 116//109
f 116//110 104//110 103//110 115//110
f 115//111 103//111 102//111 114//111
f 114//112 102//112 109//112 121//112
f 102//113 112//113 113//113 109//113
f 121//114 123//114 122//114 114//114
f 120//115 129//115 123//115 121//115
f 115//116 124//116 125//116 116//116
f 116//117 125//117 126//117 117//117
f 117//118 126//118 127//118 118//118
f 118//119 127//119 128//119 119//119
f 119//120 128//120 129//120 120//120
f 114//121 122//121 124//121 115//121
f 128//122 127//122 135//122 136//122
f 126//122 125//122 133//122 134//122
f 124//122 122//122 130//122 132//122
f 129//122 128//122 136//122 137//122
f 127//122 126//122 134//122 135//122
f 125//122 124//122 132//122 133//122
f 122//122 123//122 131//122 130//122
f 123//122 129//122 137//122 131//122
f 138//123 139//123 136//123 135//123
f 145//124 144//124 132//124 130//124
f 140//125 138//125 135//125 134//125
f 141//126 143//126 131//126 137//126
f 141//127 139//127 15//127 17//127
f 144//128 145//128 4//128 6//128
f 144//129 142//129 133//129 132//129
f 138//130 140//130 11//130 13//130
f 142//131 140//131 134//131 133//131
f 140//132 142//132 8//132 11//132
f 139//133 141//133 137//133 136//133
f 139//134 138//134 13//134 15//134
f 142//135 144//135 6//135 8//135
f 143//136 141//136 17//136 2//136
f 145//137 143//137 2//137 4//137
f 143//138 145//138 130//138 131//138
f 154//139 150//139 147//139
f 147//140 150//140 146//140
f 146//141 150//141 148//141
f 148//142 150//142 149//142
f 149//143 150//143 151//143
f 151//144 150//144 152//144
f 152//145 150//145 153//145
f 153//146 150//146 154//146
f 12//16 10//16 168//16 167//16
f 167//16 168//16 169//16 166//16
f 3//14 1//14 164//14 163//14
f 163//14 164//14 165//14 162//14
f 14//12 12//12 167//12 161//12
f 161//12 167//12 166//12 160//12
f 5//10 3//10 163//10 159//10
f 159//10 163//10 162//10 158//10
f 1//8 16//8 156//8 164//8
f 164//8 156//8 157//8 165//8
f 10//5 7//5 9//5 168//5
f 168//5 9//5 155//5 169//5
f 16//3 14//3 161//3 156//3
f 160//122 157//122 173//122 176//122
f 7//2 5//2 159//2 9//2
f 158//122 155//122 171//122 174//122
f 173//14 172//14 180//14 181//14
f 177//16 176//16 184//16 185//16
f 161//122 160//122 176//122 177//122
f 159//122 158//122 174//122 175//122
f 157//122 156//122 172//122 173//122
f 155//122 9//122 170//122 171//122
f 9//122 159//122 175//122 170//122
f 156//122 161//122 177//122 172//122
f 180//3 185//3 184//3 181//3
f 178//2 183//2 182//2 179//2
f 170//147 175//147 183//147 178//147
f 172//148 177//148 185//148 180//148
f 175//14 174//14 182//14 183//14
f 171//16 170//16 178//16 179//16
f 174//149 171//149 179//149 182//149
f 176//150 173//150 181//150 184//150
